<svg width="177" height="33" viewBox="0 0 177 33" fill="none" xmlns="http://www.w3.org/2000/svg">
<path d="M9.66278 32.4027H0.714661V0.64654H4.28309C5.23828 0.64654 6.68007 0.610412 8.60847 0.538158C10.5369 0.447839 12.1228 0.402679 13.3664 0.402679C16.8627 0.402679 19.512 1.33296 21.3142 3.19353C23.1165 5.0541 24.0176 7.84496 24.0176 11.5661C24.0176 13.806 23.7202 15.8472 23.1255 17.6897C22.5488 19.5142 21.7648 21.0135 20.7736 22.1876C19.7823 23.3618 18.6559 24.2649 17.3944 24.8972C16.1328 25.5294 14.7992 25.8455 13.3934 25.8455C13.2132 25.8455 13.024 25.8455 12.8257 25.8455C12.6455 25.8455 12.4743 25.8455 12.3121 25.8455C12.1679 25.8275 11.9877 25.8184 11.7714 25.8184C11.5731 25.8004 11.4109 25.7913 11.2848 25.7913C11.1767 25.7733 11.0145 25.7642 10.7982 25.7642C10.5999 25.7462 10.4648 25.7371 10.3927 25.7371C10.3206 25.7371 10.1854 25.7281 9.98718 25.71C9.78893 25.692 9.6808 25.683 9.66278 25.683V32.4027ZM15.1506 10.3739C15.1506 9.03717 14.7901 7.95334 14.0692 7.12241C13.3484 6.29147 12.3121 5.87601 10.9604 5.87601H9.66278V19.9658H10.663C12.0868 19.9658 13.1862 19.4871 13.9611 18.5297C14.7541 17.5723 15.1506 16.1904 15.1506 14.3841V10.3739Z" fill="white"/>
<path d="M26.0586 32.4027V0.64654H35.0068V25.141H43.0628V32.4027H26.0586Z" fill="white"/>
<path d="M61.0861 32.4027L59.8696 27.3358H52.1921L51.1648 32.4027H43.2169L51.4622 2.84129L50.8134 0.64654H61.9782L71.0075 32.4027H61.0861ZM55.6794 9.96746L53.3005 21.8083H58.545L55.6794 9.96746Z" fill="white"/>
<path d="M80.6705 32.4027H72.0738V3.19353L70.7492 0.64654H80.6975L85.6717 10.9429L90.4296 21.2122L89.105 9.15459V0.64654H97.7287V32.4027H89.4834L83.0494 19.8574L79.0755 11.9996L80.6705 22.4044V32.4027Z" fill="white"/>
<path d="M109.974 32.4027H101.378V3.19353L100.053 0.64654H110.001L114.976 10.9429L119.734 21.2122L118.409 9.15459V0.64654H127.033V32.4027H118.787L112.353 19.8574L108.379 11.9996L109.974 22.4044V32.4027Z" fill="white"/>
<path d="M149.849 32.4027H130.682V0.64654H149.443L148.902 7.04112L139.63 6.77016V12.8938H146.929V19.2342L139.63 18.6923V25.8997L149.849 25.6288V32.4027Z" fill="white"/>
<path d="M161.197 21.8354V32.4027H152.222V0.64654H155.791C156.656 0.64654 157.944 0.610412 159.656 0.538158C161.369 0.447839 162.783 0.402679 163.901 0.402679C167.794 0.402679 170.695 1.26071 172.606 2.97677C174.534 4.69283 175.498 7.32111 175.498 10.8616C175.498 12.957 175.039 14.8176 174.119 16.4433C173.218 18.0691 172.02 19.3606 170.524 20.318C171.335 20.5167 172.029 20.9773 172.606 21.6999C173.2 22.4224 173.66 23.2805 173.984 24.274C174.309 25.2494 174.588 26.2429 174.822 27.2545C175.075 28.248 175.354 29.2325 175.66 30.2079C175.985 31.1834 176.336 31.915 176.715 32.4027H166.739C166.541 32.1498 166.388 31.4453 166.28 30.2892C166.172 29.1151 166.018 27.7151 165.82 26.0894C165.64 24.4456 165.379 23.0727 165.036 21.9708C165 21.9708 164.955 21.9708 164.901 21.9708C164.559 21.9708 164.189 21.9708 163.793 21.9708C163.414 21.9528 163.081 21.9347 162.792 21.9167C162.504 21.8986 162.198 21.8805 161.873 21.8625C161.567 21.8444 161.342 21.8354 161.197 21.8354ZM161.197 16.7956H162.062C162.513 16.7956 162.892 16.7775 163.198 16.7414C163.504 16.7052 163.838 16.642 164.198 16.5517C164.577 16.4433 164.883 16.2807 165.117 16.064C165.37 15.8472 165.604 15.5672 165.82 15.224C166.036 14.8808 166.199 14.4382 166.307 13.8963C166.415 13.3544 166.469 12.7222 166.469 11.9996V9.85907C166.469 8.28752 166.054 7.19466 165.225 6.5805C164.414 5.94826 163.243 5.63215 161.711 5.63215H161.197V16.7956Z" fill="white"/>
</svg>
